<svg xmlns="http://www.w3.org/2000/svg" xml:space="preserve" style="enable-background:new 0 0 196 196" viewBox="0 0 196 196"><path d="M166.3 74.8h-8.5a6.2 6.2 0 0 0-6.1 6.2v85.8c0 3.4-2.8 6.2-6.2 6.2H120a6.2 6.2 0 0 1-6.2-6.2V81c0-3.4-2.7-6.2-6.1-6.2H99a6.2 6.2 0 0 1-6.1-6.2V25.2c0-3.4 2.7-6.2 6.1-6.2h67.2c3.4 0 6.2 2.8 6.2 6.2v43.5c0 3.3-2.7 6.1-6.1 6.1zm.7-14.3V33.3c0-3.4-2.8-6.2-6.2-6.2h-56.4a6.2 6.2 0 0 0-6.1 6.2v27.2c0 3.4 2.7 6.2 6.1 6.2h8.6c3.4 0 6.1 2.7 6.1 6.1v86c0 3.3 2.8 6 6.2 6h14.8c3.4 0 6.2-2.7 6.2-6v-86c0-3.4 2.7-6.1 6.1-6.1h8.5c3.4 0 6.1-2.8 6.1-6.2z" style="stroke:#000;stroke-width:6.1192;stroke-miterlimit:10"/><path d="M52.9 173H25a6 6 0 0 1-6-6V25a6 6 0 0 1 6-6h27.8a6 6 0 0 1 6 6V167a6 6 0 0 1-6 6zm.3-14.1V33a6 6 0 0 0-6-6H30.7a6 6 0 0 0-6 6V159a6 6 0 0 0 6 6h16.5a6 6 0 0 0 6-6z" style="stroke:#000;stroke-width:5.9609;stroke-miterlimit:10"/></svg>