<?xml version="1.0" encoding="utf-8"?>
<!-- Generator: Adobe Illustrator 27.4.1, SVG Export Plug-In . SVG Version: 6.00 Build 0)  -->
<svg version="1.1" xmlns="http://www.w3.org/2000/svg" xmlns:xlink="http://www.w3.org/1999/xlink" x="0px" y="0px"
	 viewBox="0 0 200 200" style="enable-background:new 0 0 200 200;" xml:space="preserve">
<style type="text/css">
	.st0{opacity:0.99;}
	.st1{fill:none;stroke:#000000;stroke-width:12;stroke-miterlimit:10;}
</style>
<g id="图层_1">
	<path class="st0" d="M78.5,81.7V34.5c0-1.4-1.1-2.6-2.5-2.6H56.2H43.9h-5.5c-1.4,0-2.5,1.2-2.5,2.6V53l0,82.7
		c0,0.7-0.3,1.4-0.8,1.9c-4.5,4.3-9.8,1-9.8-3.5V45.8v-8.3c0-9.2,1.3-16.6,10.1-16.6c0.8,0,7.5,0.1,8.3,0.2c0.1,0,0.2,0,0.4,0
		l34.4-0.2c5.9,0,10.6,4.9,10.6,11v5.5v33.1v63.5c0,4.6-5.3,7.8-9.8,3.5c-0.5-0.5-0.8-1.2-0.8-1.9L78.5,81.7z"/>
	<path class="st0" d="M87.9,180.7c-12.6-3.8-22-11.8-28.6-23.2c-1-1.7-3.3-1.7-4.2,0c-6.6,11.5-14.7,19.3-27.3,23.1l-2.5,0.3
		c-4.2,0-7.3-5.1-3.8-9.7c0.4-0.5,1.6-1,2.2-1.1l1.4-0.3c0.2,0,0.3-0.1,0.5-0.1c15-6.1,25.7-21,26.3-38.6l0.1-80.1
		c0-4.6,5.3-7.8,9.8-3.5c0.5,0.5,0.8,1.2,0.8,1.9l0,81.7c0.6,17.5,11.3,32.4,26.2,38.5c0.2,0.1,0.5,0.1,0.8,0.2
		c2.8,0.3,4.9,2.6,4.9,5.6c0,3.1-2.4,5.5-5.3,5.5L87.9,180.7z"/>
	<path class="st1" d="M146.2,70.3"/>
	<path d="M138.6,111.8L138.6,111.8c-2.9,0-5.3-2.4-5.3-5.3V27.1c0-2.9,2.4-5.3,5.3-5.3h0c2.9,0,5.3,2.4,5.3,5.3v79.5
		C143.9,109.5,141.5,111.8,138.6,111.8z"/>
	<path d="M180,65.2v-0.4c0-2.9-2.4-5.3-5.3-5.3h-33.2c-2.9,0-5.3,2.4-5.3,5.3v0.4c0,2.9,2.4,5.3,5.3,5.3h33.2
		C177.6,70.5,180,68.1,180,65.2z"/>
</g>
<g id="图层_3">
	<path class="st1" d="M157,176.9h-30.7c-9.2,0-16.7-7.5-16.7-16.7v-33.5c0-9,7.3-16.2,16.2-16.2h31.6c8.9,0,16.1,7.2,16.1,16.1v33.8
		C173.5,169.5,166.1,176.9,157,176.9z"/>
</g>
<g id="图层_2">
</g>
</svg>
