<svg xmlns="http://www.w3.org/2000/svg" xml:space="preserve" style="enable-background:new 0 0 200 200" viewBox="0 0 200 200"><style>.st0{opacity:.99}.st1{fill:none;stroke:#000;stroke-width:12;stroke-miterlimit:10}</style><g id="图层_1"><path d="M78.5 81.7V34.5c0-1.4-1.1-2.6-2.5-2.6H38.4c-1.4 0-2.5 1.2-2.5 2.6v101.2c0 .7-.3 1.4-.8 1.9-4.5 4.3-9.8 1-9.8-3.5V37.5c0-9.2 1.3-16.6 10.1-16.6.8 0 7.5.1 8.3.2h.4l34.4-.2c5.9 0 10.6 4.9 10.6 11V134c0 4.6-5.3 7.8-9.8 3.5-.5-.5-.8-1.2-.8-1.9V81.7z" class="st0"/><path d="M87.9 180.7c-12.6-3.8-22-11.8-28.6-23.2-1-1.7-3.3-1.7-4.2 0-6.6 11.5-14.7 19.3-27.3 23.1l-2.5.3c-4.2 0-7.3-5.1-3.8-9.7.4-.5 1.6-1 2.2-1.1l1.4-.3c.2 0 .3-.1.5-.1 15-6.1 25.7-21 26.3-38.6L52 51c0-4.6 5.3-7.8 9.8-3.5.5.5.8 1.2.8 1.9v81.7c.6 17.5 11.3 32.4 26.2 38.5.2.1.5.1.8.2 2.8.3 4.9 2.6 4.9 5.6 0 3.1-2.4 5.5-5.3 5.5l-1.3-.2z" class="st0"/><path d="M138.6 111.8c-2.9 0-5.3-2.4-5.3-5.3V27.1c0-2.9 2.4-5.3 5.3-5.3s5.3 2.4 5.3 5.3v79.5c0 2.9-2.4 5.2-5.3 5.2z"/><path d="M180 65.2v-.4c0-2.9-2.4-5.3-5.3-5.3h-33.2c-2.9 0-5.3 2.4-5.3 5.3v.4c0 2.9 2.4 5.3 5.3 5.3h33.2c2.9 0 5.3-2.4 5.3-5.3z"/></g><path id="图层_3" d="M157 176.9h-30.7c-9.2 0-16.7-7.5-16.7-16.7v-33.5c0-9 7.3-16.2 16.2-16.2h31.6c8.9 0 16.1 7.2 16.1 16.1v33.8c0 9.1-7.4 16.5-16.5 16.5z" class="st1"/></svg>